# xmcd
#
# Track frame offsets:
# 200
# 18395
# 39575
# 63205
# 81040
# 98722
# 113497
# 135737
# 153070
# 178445
# 206695
# 232350
# 262875
# 286567
#
# Disc length: 4046 seconds
#
#
# Revision: 3
# Processed by: cddbd v1.5.1PL0 Copyright (c) Steve Scherf et al.
# Submitted via: FreeRIP 2.90 
#
DISCID=b50fcc0e
DTITLE=Elton John - The Very Best Of Elton John [CD1 of 2)
DYEAR=1990
DGENRE=Rock
TTITLE0=Your Song
TTITLE1=Rocket Man (I Think It's Going to Be a Long, Long Time)
TTITLE2=Honky Cat
TTITLE3=Crocodile Rock
TTITLE4=Daniel
TTITLE5=Goodbye Yellow Brick Road
TTITLE6=Saturday Night's Alright for Fighting
TTITLE7=Candle in the Wind
TTITLE8=Don't Let the Sun Go Down on Me
TTITLE9=Lucy in the Sky with Diamonds
TTITLE10=Philadelphia Freedom
TTITLE11=Someone Saved my Life Tonight
TTITLE12=Pinball Wizard
TTITLE13=The Bitch Is Back
EXTD=
EXTT0=
EXTT1=
EXTT2=
EXTT3=
EXTT4=
EXTT5=
EXTT6=
EXTT7=
EXTT8=
EXTT9=
EXTT10=
EXTT11=
EXTT12=
EXTT13=
PLAYORDER=
